<svg width="23" height="45" viewBox="0 0 23 45" fill="none" xmlns="http://www.w3.org/2000/svg">
<path d="M1.32316 15.0313C2.82327 15.0313 4.28968 14.606 5.53698 13.8094C6.78427 13.0128 7.75642 11.8805 8.33049 10.5557C8.90456 9.23094 9.05476 7.77321 8.7621 6.36685C8.46944 4.96049 7.74707 3.66866 6.68634 2.65473C5.6256 1.6408 4.27414 0.950303 2.80286 0.67056C1.33157 0.390817 -0.193451 0.534391 -1.57937 1.08313C-2.96529 1.63186 -4.14985 2.56111 -4.98327 3.75337C-5.81668 4.94563 -6.26152 6.34734 -6.26152 7.78125C-6.25527 9.70224 -5.45416 11.5428 -4.03312 12.9012C-2.61206 14.2595 -0.686501 15.0253 1.32316 15.0313ZM1.32316 5.96875C1.69818 5.96875 2.06479 6.07505 2.37661 6.27421C2.68844 6.47337 2.93147 6.75645 3.07499 7.08764C3.21851 7.41883 3.25606 7.78326 3.1829 8.13485C3.10973 8.48645 2.92914 8.8094 2.66395 9.06288C2.39877 9.31637 2.06091 9.48899 1.69309 9.55893C1.32527 9.62886 0.944008 9.59297 0.597527 9.45579C0.251049 9.3186 -0.0450974 9.08629 -0.253452 8.78822C-0.461803 8.49016 -0.573013 8.13973 -0.573013 7.78125C-0.573013 7.30055 -0.373238 6.83953 -0.0176353 6.49962C0.337963 6.15971 0.820263 5.96875 1.32316 5.96875ZM21.6122 39.9305L9.19226 19.9023C8.77253 19.2262 8.17596 18.666 7.46119 18.277C6.74641 17.8879 5.93803 17.6834 5.1155 17.6834C4.29296 17.6834 3.48458 17.8879 2.76981 18.277C2.05504 18.666 1.45847 19.2262 1.03873 19.9023L-2.82471 26.1328L-11.6656 11.7688C-12.0853 11.0926 -12.6819 10.5325 -13.3967 10.1434C-14.1115 9.75435 -14.9198 9.54977 -15.7424 9.54977C-16.5649 9.54977 -17.3733 9.75435 -18.0881 10.1434C-18.8028 10.5325 -19.3994 11.0926 -19.8191 11.7688L-37.1454 39.9305C-37.4 40.3428 -37.5362 40.8121 -37.5402 41.2909C-37.5442 41.7697 -37.4158 42.241 -37.1681 42.6572C-36.9203 43.0733 -36.562 43.4196 -36.1293 43.6608C-35.6966 43.9021 -35.205 44.0299 -34.7041 44.0313H19.1709C19.6718 44.0299 20.1634 43.9021 20.5961 43.6608C21.0288 43.4196 21.3871 43.0733 21.6348 42.6572C21.8826 42.241 22.011 41.7697 22.007 41.2909C22.003 40.8121 21.8668 40.3428 21.6122 39.9305ZM-15.7424 15.8695L-11.7841 22.2813H-19.7006L-15.7424 15.8695ZM-29.7266 38.5938L-23.0426 27.7188H-8.44212L-5.28973 32.8617H-5.26603L-1.75812 38.5938H-29.7266ZM4.85477 38.5938L0.469883 31.4797L5.1155 23.9805L14.1697 38.5938H4.85477Z" fill="#666666"/>
</svg>
