<svg width="61" height="45" viewBox="0 0 61 45" fill="none" xmlns="http://www.w3.org/2000/svg">
<path d="M39.3227 15.0313C40.8228 15.0313 42.2892 14.6061 43.5365 13.8094C44.7838 13.0128 45.7559 11.8805 46.33 10.5557C46.9041 9.23095 47.0543 7.77321 46.7616 6.36685C46.469 4.96049 45.7466 3.66866 44.6858 2.65473C43.6251 1.6408 42.2737 0.950303 40.8024 0.67056C39.3311 0.390817 37.8061 0.534391 36.4201 1.08313C35.0342 1.63186 33.8497 2.56111 33.0162 3.75337C32.1828 4.94563 31.738 6.34734 31.738 7.78125C31.7442 9.70224 32.5453 11.5428 33.9664 12.9012C35.3874 14.2595 37.313 15.0253 39.3227 15.0313ZM39.3227 5.96875C39.6977 5.96875 40.0643 6.07505 40.3761 6.27421C40.688 6.47337 40.931 6.75645 41.0745 7.08764C41.218 7.41883 41.2556 7.78326 41.1824 8.13486C41.1092 8.48645 40.9286 8.8094 40.6635 9.06288C40.3983 9.31637 40.0604 9.48899 39.6926 9.55893C39.3248 9.62886 38.9435 9.59297 38.597 9.45579C38.2506 9.3186 37.9544 9.08629 37.7461 8.78823C37.5377 8.49016 37.4265 8.13973 37.4265 7.78125C37.4265 7.30055 37.6263 6.83953 37.9819 6.49962C38.3375 6.15971 38.8198 5.96875 39.3227 5.96875ZM59.6117 39.9305L47.1918 19.9023C46.772 19.2262 46.1755 18.666 45.4607 18.277C44.7459 17.8879 43.9375 17.6834 43.115 17.6834C42.2925 17.6834 41.4841 17.8879 40.7693 18.277C40.0546 18.666 39.458 19.2262 39.0382 19.9023L35.1748 26.1328L26.3339 11.7688C25.9142 11.0926 25.3176 10.5325 24.6028 10.1434C23.8881 9.75435 23.0797 9.54978 22.2571 9.54978C21.4346 9.54978 20.6262 9.75435 19.9115 10.1434C19.1967 10.5325 18.6001 11.0926 18.1804 11.7688L0.85413 39.9305C0.599495 40.3428 0.463299 40.8121 0.459318 41.2909C0.455338 41.7697 0.583714 42.241 0.831461 42.6572C1.07921 43.0733 1.43754 43.4196 1.87021 43.6608C2.30287 43.9021 2.79453 44.0299 3.29545 44.0313H57.1704C57.6713 44.0299 58.1629 43.9021 58.5956 43.6608C59.0283 43.4196 59.3866 43.0733 59.6344 42.6572C59.8821 42.241 60.0105 41.7697 60.0065 41.2909C60.0025 40.8121 59.8663 40.3428 59.6117 39.9305ZM22.2571 15.8695L26.2154 22.2813H18.2989L22.2571 15.8695ZM8.27289 38.5938L14.9569 27.7188H29.5574L32.7098 32.8617H32.7335L36.2414 38.5938H8.27289ZM42.8543 38.5938L38.4694 31.4797L43.115 23.9805L52.1692 38.5938H42.8543Z" fill="#999797"/>
</svg>
